<svg width="40" height="40" viewBox="0 0 40 40" fill="none" xmlns="http://www.w3.org/2000/svg">
<path d="M11.4055 20.3962L20.2165 13.9358C20.4162 13.8063 20.6711 13.8063 20.8708 13.9358L29.7254 20.3962V12.6882C29.7739 11.6312 28.9743 10.7343 27.9396 10.6848C27.9242 10.6841 27.9089 10.6836 27.8934 10.6832H13.2375C12.2019 10.7067 11.3809 11.5832 11.4039 12.6411C11.4042 12.6568 11.4047 12.6725 11.4055 12.6882V20.3962Z" fill="#011C40"/>
<path d="M22.7464 4H18.3845V9.34662H22.7464V4Z" fill="#011C40"/>
<path d="M31.2956 34.1638L34 25.03L30.2052 22.3122L29.9434 22.1785L21.0016 15.8072V34.6094H20.5217L19.6929 34.5649V15.8072L7 25.03L9.79163 34.1193L11.4039 35.9904C11.4039 35.9904 12.7624 35.9904 14.1582 35.9904C14.1582 35.9904 19.2467 35.997 20.5218 35.9904C21.8198 36.012 24.1251 35.9904 24.1251 35.9904H29.8127L31.2956 34.1638Z" fill="#011C40"/>
</svg>
