<svg width="40" height="40" viewBox="0 0 40 40" fill="none" xmlns="http://www.w3.org/2000/svg">
<path d="M37.6715 24.056L1.49798 20.0684C1.22001 20.0378 1.03266 20.3326 1.17665 20.5673C3.48869 24.3403 8.96199 27 15.3333 27H36.9128C37.0594 27 37.1881 26.9068 37.2315 26.7698L37.9528 24.476C38.0141 24.281 37.8788 24.0788 37.6715 24.056Z" fill="#011C40"/>
<path d="M39.8948 17.5177C39.7888 17.3559 39.6161 17.2483 39.4222 17.2229L29.4221 15.9184C29.0614 15.8721 28.7221 16.1219 28.6728 16.4787C28.6235 16.8355 28.8808 17.1642 29.2455 17.2117L30.3775 17.3591C30.5428 17.3807 30.6668 17.519 30.6668 17.682V18.6903C30.6668 18.884 30.4948 19.0353 30.2981 19.0145L27.6315 18.7347C27.4622 18.7177 27.3335 18.5774 27.3335 18.4111V15.5565C27.3335 15.4919 27.3528 15.4293 27.3895 15.3758L28.5549 13.6657C28.6882 13.4701 28.7035 13.2196 28.5956 13.0103C28.4869 12.8003 28.2716 12.6633 28.0316 12.6522L14.0315 12C13.8068 11.998 13.5889 12.0927 13.4575 12.2727C13.4575 12.2727 10.7936 15.9354 10.2096 16.7415C10.1396 16.838 10.0222 16.8896 9.90222 16.8765L0.737346 15.9165C0.548049 15.897 0.361329 15.9564 0.220704 16.0796C0.0807034 16.2035 0 16.3796 0 16.5648C0 17.1929 0.0833597 17.8086 0.240704 18.406C0.275392 18.5378 0.392736 18.6336 0.530705 18.6493L38.1954 22.8012C38.3547 22.8188 38.5041 22.7229 38.5515 22.5729L39.9708 18.0609C40.0281 17.8777 40.0001 17.6788 39.8948 17.5177ZM19.2387 13.9051L18.7187 17.4675C18.6934 17.6403 18.5367 17.7635 18.3587 17.746C17.0581 17.6175 12.1714 17.1146 12.1714 17.1146C11.918 17.0879 11.7874 16.8042 11.9354 16.6007L14.2254 13.4643C14.2914 13.3742 14.3993 13.3227 14.5127 13.328L18.9248 13.5334C19.1208 13.5425 19.2667 13.7147 19.2387 13.9051ZM26.4661 14.3806L26.0561 14.9806C26.0195 15.0341 26.0001 15.0974 26.0001 15.1619V18.2019C26.0001 18.3955 25.8281 18.5469 25.6314 18.526L20.3407 17.9717C20.1533 17.9521 20.0194 17.7838 20.046 17.6012L20.5853 13.9078C20.6093 13.7415 20.7593 13.6202 20.9313 13.628L26.2047 13.8739C26.4634 13.8856 26.6101 14.1693 26.4661 14.3806ZM34.6668 19.1097C34.6668 19.3034 34.4947 19.4547 34.2981 19.4338C34.2981 19.4338 32.9141 19.2812 32.2941 19.2095C32.1261 19.1906 32.0001 19.051 32.0001 18.886V17.9429C32.0001 17.746 32.1775 17.5933 32.3775 17.6194L34.3775 17.8802C34.5428 17.9024 34.6668 18.0407 34.6668 18.2038V19.1097ZM38.3488 18.7823L38.1015 19.5675C38.0548 19.7162 37.9061 19.8121 37.7475 19.7958L36.2975 19.6439C36.1288 19.6263 36.0001 19.486 36.0001 19.3197V18.4653C36.0001 18.2684 36.1775 18.1157 36.3775 18.1418L38.0741 18.3629C38.2781 18.3897 38.4094 18.5893 38.3488 18.7823Z" fill="#011C40"/>
</svg>
